<svg width="164" height="30" viewBox="0 0 164 30" fill="none" xmlns="http://www.w3.org/2000/svg">
<rect width="164" height="30" fill="#F5F5F5"/>
<path d="M2.38419e-07 27V3.72727H14.4318V6.75H3.51136V13.8409H13.3977V16.8523H3.51136V27H2.38419e-07ZM17.7733 27V9.54545H21.171V27H17.7733ZM19.4892 6.85227C18.8983 6.85227 18.3907 6.6553 17.9665 6.26136C17.5498 5.85985 17.3415 5.38257 17.3415 4.82954C17.3415 4.26894 17.5498 3.79167 17.9665 3.39773C18.3907 2.99621 18.8983 2.79545 19.4892 2.79545C20.0801 2.79545 20.5839 2.99621 21.0005 3.39773C21.4248 3.79167 21.6369 4.26894 21.6369 4.82954C21.6369 5.38257 21.4248 5.85985 21.0005 6.26136C20.5839 6.6553 20.0801 6.85227 19.4892 6.85227ZM28.4357 3.72727V27H25.038V3.72727H28.4357ZM32.3028 27V9.54545H35.5641V12.3864H35.78C36.1437 11.4242 36.7384 10.6742 37.5641 10.1364C38.3899 9.59091 39.3785 9.31818 40.53 9.31818C41.6967 9.31818 42.674 9.59091 43.4619 10.1364C44.2573 10.6818 44.8444 11.4318 45.2232 12.3864H45.405C45.8217 11.4545 46.4846 10.7121 47.3937 10.1591C48.3028 9.59848 49.3861 9.31818 50.6437 9.31818C52.227 9.31818 53.5187 9.81439 54.5187 10.8068C55.5263 11.7992 56.03 13.2955 56.03 15.2955V27H52.6323V15.6136C52.6323 14.4318 52.3104 13.5758 51.6664 13.0455C51.0225 12.5152 50.2535 12.25 49.3596 12.25C48.2535 12.25 47.3937 12.5909 46.78 13.2727C46.1664 13.947 45.8596 14.8144 45.8596 15.875V27H42.4732V15.3977C42.4732 14.4508 42.1778 13.6894 41.5869 13.1136C40.996 12.5379 40.227 12.25 39.28 12.25C38.6361 12.25 38.0414 12.4205 37.496 12.7614C36.9581 13.0947 36.5225 13.5606 36.1891 14.1591C35.8634 14.7576 35.7005 15.4508 35.7005 16.2386V27H32.3028Z" fill="white"/>
<path d="M60.4659 27V3.72727H69.7841C71.4962 3.72727 72.9242 3.98106 74.0682 4.48864C75.2121 4.99621 76.072 5.70076 76.6477 6.60227C77.2235 7.49621 77.5114 8.52652 77.5114 9.69318C77.5114 10.6023 77.3295 11.4015 76.9659 12.0909C76.6023 12.7727 76.1023 13.3333 75.4659 13.7727C74.8371 14.2045 74.1174 14.5114 73.3068 14.6932V14.9205C74.1932 14.9583 75.0227 15.2083 75.7955 15.6705C76.5758 16.1326 77.2083 16.7803 77.6932 17.6136C78.178 18.4394 78.4205 19.4242 78.4205 20.5682C78.4205 21.803 78.1136 22.9053 77.5 23.875C76.8939 24.8371 75.9962 25.5985 74.8068 26.1591C73.6174 26.7197 72.1515 27 70.4091 27H60.4659ZM65.3864 22.9773H69.3977C70.7689 22.9773 71.7689 22.7159 72.3977 22.1932C73.0265 21.6629 73.3409 20.9583 73.3409 20.0795C73.3409 19.4356 73.1856 18.8674 72.875 18.375C72.5644 17.8826 72.1212 17.4962 71.5455 17.2159C70.9773 16.9356 70.2992 16.7955 69.5114 16.7955H65.3864V22.9773ZM65.3864 13.4659H69.0341C69.7083 13.4659 70.3068 13.3485 70.8295 13.1136C71.3598 12.8712 71.7765 12.5303 72.0795 12.0909C72.3902 11.6515 72.5455 11.125 72.5455 10.5114C72.5455 9.67045 72.2462 8.99242 71.6477 8.47727C71.0568 7.96212 70.2159 7.70454 69.125 7.70454H65.3864V13.4659ZM85.8045 27.3295C84.6909 27.3295 83.6985 27.1364 82.8272 26.75C81.956 26.3561 81.2666 25.7765 80.7591 25.0114C80.2591 24.2386 80.0091 23.2765 80.0091 22.125C80.0091 21.1553 80.1871 20.3409 80.5432 19.6818C80.8992 19.0227 81.3841 18.4924 81.9977 18.0909C82.6113 17.6894 83.3083 17.3864 84.0886 17.1818C84.8765 16.9773 85.7022 16.8333 86.5659 16.75C87.581 16.6439 88.3992 16.5455 89.0204 16.4545C89.6416 16.3561 90.0924 16.2121 90.3727 16.0227C90.653 15.8333 90.7932 15.553 90.7932 15.1818V15.1136C90.7932 14.3939 90.5659 13.8371 90.1113 13.4432C89.6644 13.0492 89.028 12.8523 88.2022 12.8523C87.331 12.8523 86.6379 13.0455 86.1227 13.4318C85.6076 13.8106 85.2666 14.2879 85.1 14.8636L80.6227 14.5C80.85 13.4394 81.2969 12.5227 81.9636 11.75C82.6303 10.9697 83.4901 10.3712 84.5432 9.95454C85.6038 9.5303 86.831 9.31818 88.225 9.31818C89.1947 9.31818 90.1227 9.43182 91.0091 9.65909C91.903 9.88636 92.6947 10.2386 93.3841 10.7159C94.081 11.1932 94.6303 11.8068 95.0318 12.5568C95.4333 13.2992 95.6341 14.1894 95.6341 15.2273V27H91.0432V24.5795H90.9068C90.6265 25.125 90.2515 25.6061 89.7818 26.0227C89.3121 26.4318 88.7477 26.7538 88.0886 26.9886C87.4295 27.2159 86.6682 27.3295 85.8045 27.3295ZM87.1909 23.9886C87.903 23.9886 88.5318 23.8485 89.0772 23.5682C89.6227 23.2803 90.0507 22.8939 90.3613 22.4091C90.6719 21.9242 90.8273 21.375 90.8273 20.7614V18.9091C90.6757 19.0076 90.4674 19.0985 90.2023 19.1818C89.9447 19.2576 89.653 19.3295 89.3273 19.3977C89.0015 19.4583 88.6757 19.5152 88.35 19.5682C88.0242 19.6136 87.7288 19.6553 87.4636 19.6932C86.8954 19.7765 86.3992 19.9091 85.975 20.0909C85.5507 20.2727 85.2212 20.5189 84.9863 20.8295C84.7515 21.1326 84.6341 21.5114 84.6341 21.9659C84.6341 22.625 84.8727 23.1288 85.35 23.4773C85.8348 23.8182 86.4485 23.9886 87.1909 23.9886ZM113.208 14.5227L108.777 14.7955C108.701 14.4167 108.538 14.0758 108.288 13.7727C108.038 13.4621 107.708 13.2159 107.299 13.0341C106.898 12.8447 106.417 12.75 105.856 12.75C105.106 12.75 104.474 12.9091 103.958 13.2273C103.443 13.5379 103.186 13.9545 103.186 14.4773C103.186 14.8939 103.352 15.2462 103.686 15.5341C104.019 15.822 104.591 16.053 105.402 16.2273L108.561 16.8636C110.258 17.2121 111.523 17.7727 112.356 18.5455C113.19 19.3182 113.606 20.3333 113.606 21.5909C113.606 22.7348 113.269 23.7386 112.595 24.6023C111.928 25.4659 111.012 26.1402 109.845 26.625C108.686 27.1023 107.349 27.3409 105.833 27.3409C103.523 27.3409 101.682 26.8598 100.311 25.8977C98.9471 24.928 98.1479 23.6098 97.913 21.9432L102.674 21.6932C102.818 22.3977 103.167 22.9356 103.72 23.3068C104.273 23.6705 104.981 23.8523 105.845 23.8523C106.693 23.8523 107.375 23.6894 107.89 23.3636C108.413 23.0303 108.678 22.6023 108.686 22.0795C108.678 21.6402 108.493 21.2803 108.129 21C107.765 20.7121 107.205 20.4924 106.447 20.3409L103.424 19.7386C101.72 19.3977 100.451 18.8068 99.6176 17.9659C98.7918 17.125 98.3789 16.053 98.3789 14.75C98.3789 13.6288 98.682 12.6629 99.288 11.8523C99.9017 11.0417 100.762 10.4167 101.868 9.97727C102.981 9.53788 104.284 9.31818 105.777 9.31818C107.981 9.31818 109.716 9.78409 110.981 10.7159C112.254 11.6477 112.996 12.9167 113.208 14.5227ZM123.905 27.3409C122.11 27.3409 120.564 26.9773 119.269 26.25C117.981 25.5152 116.988 24.4773 116.291 23.1364C115.594 21.7879 115.246 20.1932 115.246 18.3523C115.246 16.5568 115.594 14.9811 116.291 13.625C116.988 12.2689 117.969 11.2121 119.235 10.4545C120.507 9.69697 122 9.31818 123.712 9.31818C124.863 9.31818 125.935 9.50379 126.928 9.875C127.928 10.2386 128.799 10.7879 129.541 11.5227C130.291 12.2576 130.875 13.1818 131.291 14.2955C131.708 15.4015 131.916 16.697 131.916 18.1818V19.5114H117.178V16.5114H127.36C127.36 15.8144 127.208 15.197 126.905 14.6591C126.602 14.1212 126.182 13.7008 125.644 13.3977C125.113 13.0871 124.496 12.9318 123.791 12.9318C123.057 12.9318 122.405 13.1023 121.837 13.4432C121.276 13.7765 120.837 14.2273 120.519 14.7955C120.201 15.3561 120.038 15.9811 120.03 16.6705V19.5227C120.03 20.3864 120.189 21.1326 120.507 21.7614C120.833 22.3902 121.291 22.875 121.882 23.2159C122.473 23.5568 123.174 23.7273 123.985 23.7273C124.522 23.7273 125.015 23.6515 125.462 23.5C125.909 23.3485 126.291 23.1212 126.61 22.8182C126.928 22.5152 127.17 22.1439 127.337 21.7045L131.814 22C131.587 23.0758 131.121 24.0152 130.416 24.8182C129.719 25.6136 128.818 26.2348 127.712 26.6818C126.613 27.1212 125.344 27.3409 123.905 27.3409Z" fill="#FFF716"/>
<g clip-path="url(#clip0_0_1)">
<path d="M148.443 0C140.159 0 133.443 6.71578 133.443 15C133.443 23.2842 140.159 30 148.443 30C156.727 30 163.443 23.2842 163.443 15C163.443 6.71578 156.727 0 148.443 0ZM148.443 29.0625C140.677 29.0625 134.381 22.7662 134.381 15.0005C134.381 7.23375 140.677 0.9375 148.443 0.9375C156.209 0.9375 162.506 7.23375 162.506 15.0005C162.506 22.7662 156.209 29.0625 148.443 29.0625Z" fill="white"/>
<path d="M152.713 14.2223L147.088 10.4775C146.801 10.2863 146.431 10.268 146.126 10.4306C145.821 10.5933 145.631 10.9102 145.631 11.2561V18.7467C145.631 19.0922 145.821 19.4086 146.126 19.5722C146.431 19.7353 146.801 19.718 147.088 19.5253L152.713 15.7805C152.974 15.6066 153.131 15.3141 153.131 15.0014C153.131 14.6883 152.974 14.3963 152.713 14.2223ZM151.631 15.6666L147.23 18.3788C146.993 18.5358 146.568 18.5433 146.568 18.5433C146.568 18.5433 146.568 18.1073 146.568 17.8247V12.1908C146.568 11.9077 146.568 11.4131 146.568 11.4131C146.568 11.4131 146.993 11.3916 147.23 11.5477L151.631 14.4506C151.845 14.5927 151.973 14.7731 151.973 15.0291C151.973 15.2845 151.845 15.5245 151.631 15.6666Z" fill="#FFF716"/>
</g>
<defs>
<clipPath id="clip0_0_1">
<rect width="30" height="30" fill="white" transform="translate(133.443)"/>
</clipPath>
</defs>
</svg>
